<?xml version="1.0" standalone="no"?>
<!DOCTYPE svg PUBLIC "-//W3C//DTD SVG 20010904//EN"
 "http://www.w3.org/TR/2001/REC-SVG-20010904/DTD/svg10.dtd">
<svg version="1.0" xmlns="http://www.w3.org/2000/svg"
 width="700.000000pt" height="700.000000pt" viewBox="0 0 700.000000 700.000000"
 preserveAspectRatio="xMidYMid meet">
<metadata>
Created by potrace 1.14, written by Peter Selinger 2001-2017
</metadata>
<g transform="translate(0.000000,700.000000) scale(0.100000,-0.100000)"
fill="#000000" stroke="none">
<path d="M2353 6940 c-419 -59 -820 -332 -1163 -791 -562 -752 -619 -1663
-154 -2456 281 -479 601 -807 954 -977 l107 -52 -71 -39 c-83 -47 -252 -209
-309 -296 -94 -145 -170 -341 -202 -522 -23 -131 -17 -356 14 -472 55 -206
126 -330 276 -480 161 -160 322 -247 555 -296 147 -32 388 -32 505 0 209 56
376 175 494 351 125 186 177 412 148 638 l-8 63 42 -21 c72 -37 244 -89 336
-101 295 -39 655 57 902 241 102 76 229 210 281 298 265 446 251 968 -37 1407
-186 284 -567 463 -938 441 -247 -14 -509 -108 -718 -257 -208 -148 -306 -310
-307 -508 0 -51 -3 -57 -42 -94 -115 -107 -256 -183 -405 -218 -115 -28 -307
-23 -423 11 -285 82 -595 318 -882 672 -188 231 -346 546 -419 837 -34 134
-59 311 -59 420 l0 78 51 69 c305 410 710 699 1210 863 68 22 135 43 149 46
l25 6 1 -108 c1 -375 200 -684 505 -788 72 -25 103 -29 224 -33 104 -3 163 0
229 13 465 87 729 355 753 768 3 59 9 107 12 107 15 0 192 -58 311 -102 727
-270 1400 -743 1779 -1252 130 -175 179 -253 265 -427 115 -231 183 -442 223
-694 25 -157 24 -524 -1 -690 -10 -66 -19 -128 -20 -139 -1 -22 34 -48 52 -37
17 10 76 247 98 396 24 162 24 482 0 655 -72 530 -294 1025 -653 1457 -106
128 -321 338 -452 442 -306 243 -646 427 -1051 568 -166 58 -447 134 -571 153
l-76 12 -27 59 c-76 167 -234 337 -377 408 -46 23 -112 47 -146 53 -54 10 -70
18 -111 58 -109 105 -299 200 -482 241 -98 22 -306 32 -397 19z m372 -200
c198 -63 370 -196 468 -361 32 -55 37 -72 37 -124 0 -107 6 -101 -138 -109
-676 -38 -1286 -254 -1762 -625 -120 -93 -309 -279 -403 -396 -44 -55 -82
-102 -85 -105 -7 -7 6 78 29 195 30 150 101 353 180 512 63 127 83 156 178
266 386 441 728 682 1082 762 98 22 323 14 414 -15z m435 -699 c0 -5 -33 -12
-72 -15 -227 -16 -353 -28 -435 -42 -61 -11 -97 -13 -109 -6 -14 8 -8 12 32
20 157 33 584 65 584 43z m937 -116 c253 -67 485 -152 722 -267 79 -38 141
-71 139 -74 -3 -2 -61 22 -129 55 -228 108 -509 210 -751 272 -67 17 -127 35
-132 40 -17 16 15 10 151 -26z m-1796 -3 c-6 -10 -40 -27 -88 -40 -282 -83
-615 -252 -871 -444 -109 -82 -312 -275 -396 -376 -87 -106 -100 -120 -67 -72
64 92 219 265 313 351 286 260 612 443 1013 570 108 34 108 34 96 11z m614
-32 c-16 -4 -59 -7 -95 -7 l-65 0 60 7 c33 4 76 7 95 7 l35 1 -30 -8z m2135
-355 c0 -3 -18 4 -40 15 -22 11 -40 23 -40 25 0 3 18 -4 40 -15 22 -11 40 -23
40 -25z m1250 -1185 c6 -11 8 -20 6 -20 -3 0 -10 9 -16 20 -6 11 -8 20 -6 20
3 0 10 -9 16 -20z m45 -80 c9 -16 13 -30 11 -30 -3 0 -12 14 -21 30 -9 17 -13
30 -11 30 3 0 12 -13 21 -30z m195 -449 c73 -218 130 -537 118 -656 -4 -32 -5
-28 -6 20 -7 233 -110 649 -218 884 -19 41 -34 77 -33 80 3 20 97 -203 139
-328z m-3501 -1107 c-46 -49 -136 -87 -219 -91 l-75 -4 101 35 c56 19 123 46
150 60 63 32 73 32 43 0z m-496 -161 c47 -44 136 -93 169 -93 9 0 19 -4 22 -9
9 -14 -76 -31 -152 -31 -88 0 -172 39 -233 108 -73 84 -74 82 43 75 l103 -6
48 -44z"/>
</g>
</svg>
