<?xml version="1.0" encoding="UTF-8" standalone="no"?><!DOCTYPE svg PUBLIC "-//W3C//DTD SVG 1.1//EN" "http://www.w3.org/Graphics/SVG/1.1/DTD/svg11.dtd"><svg width="100%" height="100%" viewBox="0 0 6000 6000" version="1.1" xmlns="http://www.w3.org/2000/svg" xmlns:xlink="http://www.w3.org/1999/xlink" xml:space="preserve" xmlns:serif="http://www.serif.com/" style="fill-rule:evenodd;clip-rule:evenodd;stroke-linecap:round;stroke-linejoin:round;stroke-miterlimit:1.5;"><g id="comic-arc"><path d="M700.321,1883.54c149.246,-223.375 336.541,-408.952 551.919,-553.721c215.436,-144.809 458.391,-249.303 715.836,-313.565c488.854,-122.024 1030.14,-97.322 1540.69,68.979c322.11,101.867 613.133,240.797 872.807,401.401c139.334,86.176 269.939,178.155 390.032,277.375c126.055,104.147 241.648,214.409 343.558,332.868c259.106,301.184 437.94,646.945 506.526,1024c44.986,247.321 41.4,507.012 -9.483,773.138c-2.297,11.266 4.985,22.278 16.251,24.575c11.267,2.297 22.279,-4.985 24.576,-16.251c58.74,-271.118 64.252,-536.194 28.781,-791.112c-55.08,-395.831 -213.144,-768.021 -465.468,-1096.62c-100.26,-130.568 -214.422,-254.6 -343.106,-369.114c-122.486,-108.999 -257.388,-210.206 -404.257,-300.561c-270.854,-166.631 -581.3,-297.366 -919.415,-394.763c-536.723,-149.628 -1097.9,-148.682 -1600.34,-4.079c-261.722,75.324 -507.214,189.432 -725.399,342.338c-217.298,152.285 -408.134,342.124 -558.279,572.148c-6.336,9.594 -3.691,22.528 5.904,28.865c9.595,6.336 22.529,3.691 28.865,-5.904Z" style="fill:#231f20;"/><path d="M696.083,1800.23c154.481,-234.182 347.996,-426.027 569.23,-575.376c223.813,-151.091 475.48,-259.173 740.681,-326.734c515.421,-131.304 1082.18,-108.441 1600.61,46.296c337.602,98.218 637.003,243.1 899.252,415.25c141.697,93.015 272.826,193.655 392.038,302.028c125.316,113.921 238.436,234.934 336.77,363.283c254.062,331.609 416.466,705.872 464.353,1088.39c33.312,266.094 10.488,535.205 -67.352,794.352c-2.575,8.277 2.053,17.086 10.33,19.661c8.276,2.575 17.086,-2.054 19.661,-10.33c84.584,-262.725 109.304,-536.365 84.448,-808.777c-36.181,-396.521 -179.832,-791.388 -426.639,-1145.3c-96.513,-138.395 -207.964,-270.849 -335.149,-393.555c-121.226,-116.956 -256.084,-225.793 -404.409,-322.779c-272.689,-178.304 -589.9,-317.386 -942.57,-412.097c-538.188,-140.534 -1120.44,-141.771 -1646.26,8.367c-268.349,76.624 -521.781,192.563 -747.566,350.198c-222.527,155.36 -418.723,350.492 -573.726,589.943c-4.741,7.256 -2.7,16.996 4.556,21.738c7.255,4.741 16.996,2.7 21.737,-4.556Z" style="fill:#f04e5f;"/></g><g id="the-cherry"><g id="Layer5"><path d="M1879.3,3750.69c-53.647,-24.249 -790.061,363.342 -484.575,1211.74c0,0 237.283,734.057 1176.58,462.136c0,0 580.81,-251.992 324.102,-903.672c-36.199,53.96 757.34,416.923 1369.89,-199.036c141.258,-252.169 218.06,-481.925 177.975,-671.036c20.864,-157.55 -47.781,-349.057 -204.793,-635.404c0,-0 -639.55,-656.418 -1468.67,33.683c-120.698,100.461 -101.929,359.991 -74.995,546.518c-32.14,78.683 -120.608,298.48 -400.448,370.87c-121.892,31.531 -269.251,15.161 -415.069,-215.797Z" style="fill:#e69c9c;"/><path d="M2789.69,348.228c-0,-0 108.336,412.902 -124.969,567.905c-0,0 -377.839,208.623 -583.511,-44.846c-0,0 -233.999,201.33 8.838,629.811c-0,-0 269.494,595.253 1058.18,98.454c150.194,-94.609 371.283,-442.766 135.582,-854.553c0,0 -228.151,-428.421 -494.119,-396.771Z" style="fill:#e69c9c;"/></g><g id="Layer7"><path d="M2887.32,393.922c-0,0 277.602,1116.5 -649.382,997.833c0,0 -271.513,-156.112 -236.922,-364.222l81.489,-157.391c-0,0 387.28,237.745 564.487,49.364c25.478,28.17 230.017,-159.355 156.221,-558.984c-11.078,-59.991 73.428,11.953 84.107,33.4Z" style="fill:#b06365;"/><path d="M2050.35,4997.2c0,0 5.524,-49.397 -82.493,-52.094c0,0 -317.444,-55.727 -385.162,-339.79c0,0 -98.866,-130.867 -61.934,141.379c-0,0 67.373,341.339 247.933,453.628c-0,-0 82.803,55.257 161.937,69.534c0,0 138.945,22.41 119.719,-272.657Z" style="fill:#b06365;"/><path d="M3389.16,3270.71c-0,0 24.248,43.39 97.402,-5.629c0,0 290.603,-139.377 510.957,52.252c-0,0 156.552,48.911 -31.888,-151.02c-0,-0 -253.399,-238.412 -465.582,-224.681c-0,-0 -99.495,3.237 -172.163,37.668c-0,0 -126.043,62.617 61.274,291.41Z" style="fill:#b06365;"/></g><g id="Layer3"><path d="M2503.23,3893.48c0,-0 93.535,-163.364 177.822,-235.147c84.287,-71.783 -90.157,-276.104 33.532,-521.45c123.688,-245.346 911.319,-729.43 1504.25,-128.083c336.834,444.781 275.364,931.858 55.377,1268.09c-0,0 -299.979,465.686 -957.718,402.862c0,-0 -731.708,-110.787 -813.264,-786.272Z" style="fill:none;stroke:#231f20;stroke-width:83.33px;"/><path d="M2456.08,3899.76c-0,-0 -362.409,252.067 -562.911,-170.204c-0,0 -408.775,94.314 -540.827,676.644c-132.051,582.33 267.509,1119.97 948.412,1091.57c506.759,-21.134 776.168,-535.612 627.606,-953.396" style="fill:none;stroke:#231f20;stroke-width:83.33px;"/><path d="M2660.14,3568.07c0,-0 -908.472,669.685 -1743.46,-772.518c-929.302,-1605.11 934.787,-3326.71 1853.13,-2441.61" style="fill:none;stroke:#231f20;stroke-width:83.33px;"/><path d="M2779.29,360.61c-0,0 111.453,337.305 -44.191,499.697c-155.644,162.391 -378.058,210.831 -610.266,33.04c-232.207,-177.792 -284.537,1108.54 709.9,859.348c916.313,-229.61 478.2,-1403.89 -55.443,-1392.09Z" style="fill:none;stroke:#231f20;stroke-width:83.33px;"/><path d="M2157.79,3740.04c-0,0 118.296,184.564 380.033,113.966l92.397,-151.467c0,-0 -210.636,174.345 -361.367,37.501l-111.063,0Z" style="fill:#725f5c;stroke:#231f20;stroke-width:62.5px;"/><path d="M2645.38,3402.85c-0,-0 -696.225,838.047 -1684.75,-539.995c4.765,11.499 687.27,1338.77 1734.19,706.554l-49.439,-166.559Z" style="fill:#725f5c;stroke:#231f20;stroke-width:62.5px;"/><path d="M2803.09,581.418c-127.662,-301.374 -807.939,-924.297 -1842.47,337.805c-57.065,-1.19 655.758,-1171.69 1598.98,-748.401c196.28,112.419 221.663,158.185 243.618,202.613l-0.127,207.983Z" style="fill:#725f5c;stroke:#231f20;stroke-width:62.5px;"/></g><g id="Layer4"><path d="M2049.44,916.655c-2.961,3.582 -5.335,7.629 -7.957,11.598c-6.116,9.256 -12.24,18.806 -16.019,30.265c-2.325,7.048 -3.565,14.577 -4.702,22.22c-5.346,35.928 -1.755,75.667 1.538,104.25c9.163,80.785 30.608,159.779 74.553,222.604c30.502,43.607 72.063,78.905 126.792,102.716c99.467,40.424 210.639,37.702 313.406,4.039c39.88,-13.064 78.513,-30.724 114.294,-52.318c55.176,-33.299 103.59,-75.462 142.348,-121.168c6.918,-7.488 6.455,-19.184 -1.033,-26.101c-7.488,-6.918 -19.184,-6.455 -26.101,1.033c-39.375,39.144 -88.088,72.868 -140.921,100.683c-33.758,17.772 -69.268,32.884 -105.791,44.442c-91.006,28.797 -188.458,35.167 -276.664,0.504c-59.703,-21.681 -101.995,-60.604 -132.461,-108.786c-31.802,-50.295 -51.418,-109.967 -63.43,-171.496c-5.184,-26.831 -10.483,-64.135 -9.098,-98.606c0.942,-23.44 4.336,-45.523 15.666,-62.297c0.989,-1.219 0.801,-3.012 -0.419,-4.001c-1.22,-0.988 -3.013,-0.8 -4.001,0.419Z" style="fill:#231f20;"/><path d="M1535.69,4589.22c0.444,0.446 0.745,0.799 0.874,1.036c21.809,40.062 40.326,81.002 61.259,121.115c9.239,17.704 18.957,35.22 29.554,52.466c43.799,68.715 97.149,127.007 161.469,162.887c66.051,36.844 142.635,50.658 227.777,34.095c11.184,-1.772 18.825,-12.291 17.052,-23.475c-1.772,-11.184 -12.291,-18.824 -23.474,-17.052c-73.908,9.077 -137.482,-8.865 -193.145,-42.292c-55.916,-33.58 -104.238,-83.242 -143.388,-143.863c-10.551,-15.762 -20.285,-31.812 -29.573,-48.056c-22.583,-39.498 -42.75,-79.932 -66.193,-119.356c-2.279,-3.836 -15.268,-29.168 -28.359,-40.049c-8.129,-6.756 -16.775,-9.92 -24.659,-9.631c-12.979,0.472 -24.607,7.722 -31.438,22.945c-9.344,20.822 -8.873,63.537 -8.919,71.727c-0.232,31.537 1.269,63.66 5.07,95.492c3.834,32.1 9.929,63.908 19.331,94.467c34.924,113.962 97.476,250.11 189.715,348.248c63.277,67.324 140.328,116.585 230.017,130.3c5.005,0.879 9.782,-2.471 10.661,-7.476c0.879,-5.004 -2.471,-9.781 -7.476,-10.66c-83.858,-16.645 -153.473,-67.026 -211.037,-132.339c-85.695,-97.23 -144.261,-228.463 -175.691,-338.773c-8.089,-28.512 -13.209,-58.106 -15.954,-87.949c-2.774,-30.153 -3.04,-60.539 -1.859,-90.304c0.116,-2.817 4.838,-12.804 8.386,-23.503Z" style="fill:#231f20;"/><path d="M4044.26,3287.52c-0.623,-0.089 -1.077,-0.189 -1.322,-0.3c-41.539,-18.844 -80.98,-40.371 -121.851,-59.783c-18.038,-8.567 -36.346,-16.697 -55.193,-24.08c-76.351,-28.471 -154.048,-42.869 -227.003,-32.768c-74.918,10.372 -144.371,45.474 -202.36,109.978c-7.86,8.151 -7.623,21.15 0.528,29.01c8.151,7.86 21.149,7.623 29.009,-0.528c53.53,-51.762 115.085,-75.731 179.652,-82.575c64.861,-6.875 133.346,3.663 201.112,28.473c17.916,6.227 35.353,13.176 52.551,20.549c41.818,17.927 82.27,38.056 124.73,55.406c4.13,1.689 29.756,14.087 46.76,14.888c10.559,0.497 19.366,-2.185 25.485,-7.165c10.076,-8.193 14.992,-20.985 11.276,-37.251c-5.083,-22.25 -31.187,-56.063 -36.084,-62.629c-18.81,-25.314 -39.356,-50.052 -61.564,-73.172c-22.395,-23.316 -46.419,-45.035 -72.33,-63.766c-96.52,-69.935 -228.457,-140.939 -361.198,-163.72c-91.062,-15.629 -182.239,-8.542 -262.095,34.532c-4.525,2.313 -6.32,7.864 -4.007,12.389c2.313,4.524 7.864,6.32 12.388,4.007c76.966,-37.223 162.882,-38.937 248.172,-21.473c126.97,25.998 252.765,95.479 344.296,164.604c23.631,17.888 45.543,38.428 65.709,60.596c20.376,22.399 38.891,46.495 55.877,70.966c1.603,2.318 3.85,13.135 7.462,23.812Z" style="fill:#231f20;"/><path d="M3451.3,3294.81c-0,0 -48.477,34.687 -85.511,-52.108" style="fill:none;stroke:#231f20;stroke-width:62.5px;"/><path d="M2014.07,4942.91c11.13,6.659 15.269,17.24 17.755,27.899c1.55,6.644 1.742,13.531 1.219,20.299c-0.837,10.842 -3.13,21.55 -8.866,28.697c-5.757,6.426 -5.214,16.318 1.212,22.075c6.427,5.757 16.318,5.213 22.075,-1.213c14.629,-15.099 25.049,-41.496 20.772,-66.253c-3.98,-23.037 -18.873,-43.892 -45.361,-51.815c-5.605,-2.43 -12.128,0.148 -14.559,5.752c-2.43,5.605 0.148,12.129 5.753,14.559Z" style="fill:#231f20;"/></g></g></svg>